<?xml version="1.0" encoding="UTF-8" standalone="no"?>
<!-- Created with Inkscape (http://www.inkscape.org/) -->

<svg
   xmlns:dc="http://purl.org/dc/elements/1.1/"
   xmlns:cc="http://creativecommons.org/ns#"
   xmlns:rdf="http://www.w3.org/1999/02/22-rdf-syntax-ns#"
   xmlns:svg="http://www.w3.org/2000/svg"
   xmlns="http://www.w3.org/2000/svg"
   xmlns:sodipodi="http://sodipodi.sourceforge.net/DTD/sodipodi-0.dtd"
   xmlns:inkscape="http://www.inkscape.org/namespaces/inkscape"
   version="1.1"
   id="svg3767"
   width="278.39999"
   height="89.599998"
   viewBox="0 0 278.39999 89.599998"
   sodipodi:docname="Logo.svg"
   enable-background="new"
   inkscape:version="0.92.3 (5aff6ba, 2018-11-25)">
  <metadata
     id="metadata3773">
    <rdf:RDF>
      <cc:Work
         rdf:about="">
        <dc:format>image/svg+xml</dc:format>
        <dc:type
           rdf:resource="http://purl.org/dc/dcmitype/StillImage" />
        <dc:title></dc:title>
      </cc:Work>
    </rdf:RDF>
  </metadata>
  <defs
     id="defs3771" />
  <sodipodi:namedview
     pagecolor="#ffffff"
     bordercolor="#666666"
     borderopacity="1"
     objecttolerance="10"
     gridtolerance="10"
     guidetolerance="10"
     inkscape:pageopacity="0"
     inkscape:pageshadow="2"
     inkscape:window-width="1920"
     inkscape:window-height="1052"
     id="namedview3769"
     showgrid="false"
     inkscape:zoom="6.0596266"
     inkscape:cx="132.88253"
     inkscape:cy="31.597866"
     inkscape:window-x="0"
     inkscape:window-y="0"
     inkscape:window-maximized="1"
     inkscape:current-layer="svg3767" />
  <path
     style="fill:#000000;stroke-width:0.79999995"
     d="M 0,44.799999 V 0 h 139.19999 139.2 v 44.799999 44.799999 h -139.2 H 0 Z M 151.19999,80.78447 c 41.40212,-2.85427 77.62435,-10.472 110.25033,-23.186241 l 10.54967,-4.111171 v -9.878282 -9.878282 l -2.6,-1.577029 c -5.89455,-3.575341 -30.61388,-11.87704 -49,-16.456084 C 185.08372,6.9019003 138.24356,2.811573 105.2,5.6375168 71.630945,8.5084014 33.459705,19.314536 16.799999,30.663222 11.962593,33.95849 3.9999999,41.582829 3.9999999,42.91947 c 0,1.693436 5.4502974,7.292862 10.8472501,11.144047 7.035531,5.02045 15.947968,9.27201 28.26362,13.482783 33.793898,11.554276 69.34925,15.908906 108.08912,13.23817 z M 101.6,77.534042 C 61.600632,73.573106 21.430798,59.692279 7.9999997,45.190238 L 5.9999998,43.030718 10.8,38.640368 c 2.64,-2.414693 7.217514,-5.830214 10.172253,-7.590049 14.293129,-8.512944 44.158978,-17.552957 69.427744,-21.014896 37.535963,-5.1426019 86.815133,-2.0436662 127.999993,8.049319 11.49799,2.817761 42.02201,12.596324 47.79755,15.312252 l 3.00245,1.411888 0.22817,8.211915 0.22817,8.211914 -3.82817,1.649119 c -5.98743,2.579296 -30.88454,10.804613 -40.76721,13.468361 -17.69804,4.770276 -34.19728,7.834733 -54.66096,10.152346 -12.92008,1.463265 -57.66527,2.134121 -68.79999,1.031505 z m 47.39366,-9.736674 c 5.65412,-2.588543 10.58709,-7.518192 13.28797,-13.279 1.77063,-3.776661 2.11836,-5.634616 2.11836,-11.318369 0,-5.683753 -0.34773,-7.541708 -2.11836,-11.318369 -2.69786,-5.754385 -7.60965,-10.665939 -13.36327,-13.362624 -6.44293,-3.019766 -15.3938,-3.019766 -21.83673,0 -15.35754,7.197981 -20.49758,26.325477 -10.84019,40.339279 7.18229,10.422198 21.17236,14.240517 32.75222,8.939083 z m -19.13428,-1.9074 c -3.39755,-1.203888 -10.06847,-6.491025 -11.45226,-9.076658 -0.66227,-1.237452 0.58151,-2.114634 9.52599,-6.718298 l 10.28771,-5.295013 h 11.68958 c 13.28591,0 12.79215,-0.327185 10.34887,6.857489 -1.82336,5.361785 -8.84,12.37843 -14.20179,14.201794 -4.7718,1.622729 -11.66825,1.635794 -16.1981,0.03069 z m 10.43665,-25.507521 c 0.25697,-0.669653 1.58567,-5.079653 2.95266,-9.8 1.36698,-4.720346 2.7889,-8.898095 3.15981,-9.283887 1.97865,-2.058056 11.88142,7.67193 13.93141,13.688326 2.3398,6.866935 2.70924,6.613113 -9.62551,6.613113 -9.41715,0 -10.82256,-0.164245 -10.41837,-1.217552 z m 111.70396,3.217552 c 0,-1.023423 -2.17777,-1.2 -14.8,-1.2 -12.62222,0 -14.8,0.176577 -14.8,1.2 0,1.023423 2.17778,1.2 14.8,1.2 12.62223,0 14.8,-0.176577 14.8,-1.2 z"
     id="path4592"
     inkscape:connector-curvature="0" />
</svg>
